<svg width="384" height="96" viewBox="0 0 384 96" fill="none" xmlns="http://www.w3.org/2000/svg">
<path d="M225.768 67.8479C223.592 67.7965 222.666 66.8855 222.55 64.542C222.522 63.9322 222.522 63.3298 222.522 62.72C222.522 55.6453 222.543 48.5705 222.508 41.4884C222.495 39.3212 222.44 37.1539 222.117 35.0014C221.582 31.4162 220.471 28.1029 217.994 25.4802C212.731 19.9115 202.487 20.3082 197.231 26.2883C196.367 27.2654 195.584 28.3233 194.727 29.3078C193.677 30.5126 192.785 30.4979 191.735 29.2784C191.378 28.867 191.097 28.3821 190.795 27.9193C190.061 26.7659 189.231 25.7006 188.208 24.819C182.623 19.9923 173.93 20.5433 168.585 26.09C167.803 26.9054 167.11 27.8238 166.369 28.6907C166.039 29.0727 165.724 29.5502 165.161 29.418C164.543 29.271 164.461 28.6539 164.296 28.1176C163.967 27.0597 164.139 25.9577 163.995 24.8851C163.631 22.1449 162.41 21.1825 159.891 21.7481C156.317 22.5416 152.762 23.4452 149.174 24.1505C147.809 24.4149 147.87 25.2745 147.905 26.3104C147.946 27.5079 148.769 27.236 149.414 27.2434C153.298 27.2728 154.409 28.4335 154.498 32.5917C154.512 33.2015 154.512 33.8039 154.512 34.4136C154.512 43.5307 154.512 52.6479 154.512 61.765C154.512 62.5878 154.512 63.4179 154.457 64.2408C154.347 66.2243 153.407 67.5687 151.658 68.2446C150.93 68.5238 150.189 68.7809 149.414 68.7883C148.124 68.7956 148.083 69.6552 148.083 70.7131C148.083 71.9694 148.851 71.8077 149.579 71.8077C156.035 71.8077 162.499 71.8077 168.955 71.8077C170.465 71.8077 170.479 71.7122 170.499 70.1107C170.513 68.8691 169.751 68.8764 168.976 68.7736C165.422 68.274 164.091 66.7533 164.077 62.9918C164.056 55.4836 164.049 47.9681 164.132 40.4599C164.166 37.4551 165.01 34.634 166.629 32.1435C168.557 29.1755 171.295 27.7209 174.65 27.8458C178.246 27.978 180.723 29.9763 182.211 33.4512C183.248 35.8609 183.68 38.4249 183.7 41.0403C183.755 47.946 183.728 54.8445 183.728 61.7503C183.728 66.9957 183.069 67.8847 178.259 68.8177C177.079 69.0454 177.189 69.8682 177.182 70.7498C177.175 71.7563 177.765 71.8151 178.479 71.8151C185.018 71.8077 191.557 71.8077 198.096 71.8151C198.85 71.8151 199.461 71.7783 199.454 70.6837C199.454 69.6919 199.427 68.9573 198.212 68.7736C194.356 68.2006 193.169 66.7312 193.149 62.5731C193.114 55.8877 193.08 49.2023 193.169 42.5169C193.217 38.8436 193.8 35.2732 195.845 32.1362C199.619 26.3324 208.525 26.0238 211.516 33.5688C212.402 35.8021 212.909 38.1163 212.95 40.5113C213.019 44.4197 212.971 48.3281 212.971 52.2291H212.998C212.998 56.2256 212.944 60.2148 213.019 64.2114C213.074 67.0545 213.561 69.8021 216.072 71.4698C218.927 73.3652 224.107 72.8216 226.646 70.4486C227.27 69.8682 227.73 69.1997 227.455 68.2961C227.16 67.319 226.344 67.8479 225.774 67.8332L225.768 67.8479ZM51.8453 67.8259C49.1488 67.8847 48.1745 66.9002 48.1608 63.9689C48.1402 59.7593 48.1608 55.5497 48.1608 51.3402H48.1333C48.1333 47.1306 48.2157 42.921 48.1128 38.7114C48.0167 34.7663 47.3511 30.9093 45.1761 27.596C41.5533 22.0714 36.2769 20.8298 30.4241 21.5204C25.8682 22.0567 22.163 24.459 19.0548 27.9927C18.5471 28.5658 18.0668 29.4914 17.1748 29.1388C16.2279 28.7641 16.2828 27.6842 16.2211 26.7879C16.1662 25.921 16.1525 25.0541 16.1456 24.1872C16.1456 19.5442 16.1593 14.9011 16.1387 10.2507C16.125 7.95126 16.2622 5.65179 16.0427 3.35231C15.7819 0.553261 14.5332 -0.423834 11.9053 0.163892C8.37166 0.949976 4.85863 1.84626 1.3113 2.53684C-0.0403907 2.79397 -0.0335293 3.60944 0.0145003 4.66734C0.0693913 5.87218 0.899618 5.54159 1.53773 5.57832C2.06605 5.61505 2.59438 5.58567 3.1227 5.63709C4.95469 5.81341 5.8947 6.695 6.375 8.59042C6.67003 9.74383 6.60828 10.9193 6.60828 12.08C6.61514 28.7935 6.60828 45.4996 6.60828 62.2131C6.60828 62.8669 6.622 63.5208 6.57398 64.1673C6.42303 66.1729 5.51732 67.5908 3.69906 68.274C2.97175 68.5458 2.22386 68.7956 1.44853 68.803C0.227203 68.825 0.0213617 69.5817 0.0488072 70.6984C0.0831141 71.8959 0.789836 71.8224 1.54459 71.8224C8.04231 71.8224 14.54 71.8224 21.0378 71.8224C22.5678 71.8224 22.5816 71.7416 22.5884 70.1474C22.5884 69.2438 22.2111 68.9279 21.4494 68.825C20.729 68.7295 19.9948 68.6046 19.3087 68.3769C17.2503 67.701 16.324 66.4006 16.1868 64.1012C16.1525 63.5355 16.1387 62.9771 16.1387 62.4114C16.1387 55.8583 16.1319 49.3052 16.1387 42.752C16.1387 41.1505 16.1799 39.5489 16.4818 37.962C17.8472 30.7403 23.0207 26.6924 29.7929 27.8458C34.3831 28.6319 36.7846 32.048 37.9991 36.5882C38.596 38.8216 38.7058 41.1211 38.7195 43.4205C38.7538 50.6716 38.7195 57.9153 38.7538 65.1664C38.7744 69.2364 41.0867 72.1236 44.6203 72.5571C46.6719 72.8069 48.6754 72.5277 50.5691 71.6094C51.3925 71.2127 52.1472 70.7131 52.751 69.9858C53.1902 69.4642 53.396 68.8397 53.1284 68.1859C52.8677 67.5394 52.2845 67.8259 51.8316 67.8332L51.8453 67.8259ZM329.765 67.8112C326.897 68.0316 325.786 66.959 325.772 63.9102C325.758 59.6124 325.772 55.3147 325.772 51.0169C325.772 47.1526 325.765 43.2883 325.772 39.424C325.772 37.5947 325.594 35.7801 325.244 33.9949C324.16 28.4923 321.539 24.2166 316.372 22.3799C310.842 20.4184 305.483 21.0135 300.488 24.4003C298.793 25.5537 297.421 27.0965 296.055 28.6466C295.006 29.8441 294.45 29.6531 294.011 28.0442C293.729 27.023 293.86 25.9724 293.736 24.9439C293.386 22.1375 292.165 21.1898 289.551 21.7702C286.017 22.5636 282.497 23.4525 278.95 24.1431C277.626 24.4003 277.578 25.1937 277.633 26.2663C277.694 27.4491 278.504 27.1552 279.156 27.192C279.684 27.214 280.213 27.1993 280.741 27.2434C282.566 27.3977 283.527 28.2792 284.007 30.1673C284.268 31.1885 284.233 32.2317 284.233 33.2749C284.247 43.0459 284.24 52.8095 284.24 62.5804C284.24 62.6686 284.24 62.7567 284.24 62.8376C284.185 66.7753 282.943 68.3181 279.224 68.7515C277.914 68.9058 277.784 69.6111 277.804 70.7425C277.825 72.0208 278.634 71.8004 279.327 71.8004C285.784 71.8077 292.247 71.7783 298.704 71.8298C299.877 71.8371 300.248 71.4477 300.227 70.1988C300.207 69.0307 299.617 68.8838 298.773 68.7662C295.074 68.2667 293.791 66.7606 293.784 62.8155C293.764 55.6085 293.791 48.4015 293.798 41.1945C293.798 38.7628 294.32 36.456 295.294 34.2741C297.311 29.778 300.783 27.596 305.346 27.574C310.108 27.5446 313.545 30.2702 315.192 35.0087C315.981 37.2715 316.317 39.6297 316.331 42.0247C316.365 49.6211 316.324 57.2174 316.358 64.8211C316.379 69.0601 318.369 71.7857 321.985 72.4542C324.544 72.9244 327 72.4322 329.244 70.9629C329.834 70.5735 330.403 70.1327 330.712 69.4421C331.186 68.3916 330.781 67.7083 329.759 67.7891L329.765 67.8112ZM79.3389 21.5939C66.0484 21.3294 54.8712 31.093 54.6722 46.9469C54.487 61.3756 64.5457 72.3587 77.747 72.6379C90.7493 72.9171 102.338 63.3445 102.4 47.0277C102.496 32.7754 92.4784 21.8583 79.3457 21.6012L79.3389 21.5939ZM91.9912 54.1245C91.8472 56.1669 91.5384 58.1578 90.9963 60.1267C88.1626 70.4119 78.5155 71.1833 72.601 65.4529C69.0331 61.9927 67.1668 57.5186 66.0141 52.6479C65.2662 49.4888 64.9231 46.2563 64.978 43.5748C64.978 39.3652 65.3348 35.8021 66.6316 32.4154C69.2115 25.6712 75.8121 23.1587 81.809 26.6557C84.9995 28.5143 87.1814 31.3869 88.7527 34.7957C91.5727 40.8933 92.4715 47.3877 91.9844 54.1392L91.9912 54.1245ZM253.782 21.6379C240.252 21.1016 229.013 31.1224 228.876 46.9396C228.738 62.5731 239.428 72.1677 251.8 72.6085C264.905 73.0787 276.514 63.3665 276.583 47.0424C276.521 31.5632 266.057 22.1228 253.782 21.6379ZM266.188 54.0584C266.044 56.1375 265.728 58.1798 265.172 60.1854C262.325 70.3898 252.76 71.1833 246.846 65.5044C243.23 62.0368 241.357 57.5113 240.197 52.5964C239.463 49.4741 239.127 46.2931 239.175 43.5895C239.161 39.446 239.511 35.883 240.801 32.4888C243.401 25.6198 250.105 23.1146 256.157 26.7438C259.203 28.5731 261.33 31.3354 262.867 34.612C265.735 40.739 266.675 47.2628 266.195 54.0584H266.188ZM136.981 21.66C132.144 20.7196 127.904 22.1742 124.185 25.4802C123.094 26.4499 122.147 27.596 121.118 28.6319C120.795 28.9551 120.418 29.2784 119.924 29.0727C119.409 28.8596 119.416 28.338 119.402 27.8605C119.375 26.9054 119.43 25.943 119.334 25.0027C119.059 22.1889 117.79 21.1971 115.21 21.7702C111.594 22.571 107.999 23.4525 104.376 24.2019C103.134 24.459 103.237 25.2892 103.244 26.2222C103.244 27.2728 103.916 27.236 104.596 27.214C104.836 27.2066 105.083 27.2066 105.33 27.214C108.527 27.2654 109.803 28.4996 109.817 31.9305C109.865 42.4728 109.865 53.0225 109.831 63.5649C109.824 66.5476 108.74 67.8626 106.002 68.5752C105.529 68.7001 105.048 68.8103 104.568 68.8324C103.258 68.9132 103.477 69.9123 103.45 70.8159C103.415 71.8812 104.081 71.8371 104.753 71.8371C108.122 71.8371 111.491 71.8371 114.86 71.8371C118.147 71.8371 121.44 71.8371 124.727 71.8371C126.147 71.8371 126.291 71.602 126.243 70.0886C126.209 68.9573 125.495 68.9132 124.754 68.8177C120.61 68.2814 119.402 66.8635 119.409 62.4261C119.409 56.0493 119.354 49.6651 119.499 43.2883C119.581 39.4975 120.294 35.7874 122.01 32.3933C123.08 30.2775 124.514 28.5364 126.724 27.7429C130.127 26.5161 132.357 27.8091 133.242 31.4677C133.509 32.555 133.756 33.6569 134.093 34.7222C134.491 35.9711 135.252 36.9041 136.46 37.3302C139.156 38.2853 142.23 36.8601 143.417 34.0977C145.688 28.8229 142.573 22.7546 136.995 21.6673L136.981 21.66ZM382.488 22.0787C375.991 22.0787 369.98 22.0787 363.482 22.0787C361.952 22.0787 361.938 22.1595 361.932 23.7538C361.932 24.6574 362.309 24.9733 363.071 25.0761C363.791 25.1716 364.525 25.2965 365.211 25.5243C367.27 26.2002 368.196 27.5005 368.333 29.8C368.367 30.3657 368.381 30.924 368.381 31.4897C368.381 38.0429 368.388 44.596 368.381 51.1492C368.381 52.7507 368.34 54.3523 368.038 55.9391C366.673 63.1608 361.499 67.2088 354.727 66.0554C350.137 65.2693 347.735 61.8531 346.521 57.3129C345.924 55.0796 345.814 52.7801 345.8 50.4806C345.766 43.2295 345.8 35.9858 345.766 28.7347C345.746 24.6647 343.433 21.7775 339.9 21.3441C337.848 21.0943 335.845 21.3735 333.951 22.2918C333.127 22.6885 332.373 23.1881 331.769 23.9154C331.33 24.437 331.124 25.0614 331.392 25.7153C331.652 26.3618 332.235 26.0753 332.688 26.0679C335.385 26.0092 336.359 26.9936 336.373 29.9249C336.393 34.1345 336.373 38.3441 336.373 42.5536H336.4C336.4 46.7632 336.318 50.9728 336.421 55.1824C336.517 59.1275 337.183 62.9845 339.358 66.2978C342.98 71.8224 348.257 73.064 354.11 72.3734C358.666 71.8371 362.371 69.4348 365.479 65.9011C365.987 65.328 366.467 64.4024 367.359 64.755C368.306 65.1297 368.251 66.2096 368.313 67.1059C368.367 67.9728 368.381 68.8397 368.388 69.7066C368.388 69.8682 368.395 70.0372 368.395 70.1988C368.395 72.0281 368.409 73.8648 368.409 75.6941C368.409 77.3617 369.664 92.3267 358.597 92.3267C351.818 92.3267 349.286 87.2208 348.826 83.1215C348.353 78.9119 347.838 76.1569 344.222 75.4884C341.663 75.0182 339.447 75.5104 337.21 76.9797C336.62 77.3691 336.05 77.8099 335.742 78.5005C335.268 79.551 335.673 80.2342 336.695 80.1534C339.563 79.933 341.265 80.8146 341.265 83.9369C341.265 89.9024 345.574 96 358.597 96C374.049 96 377.493 86.9931 377.521 75.1871C377.521 75.1504 377.521 75.1137 377.521 75.077C377.521 75.0696 377.521 75.0623 377.521 75.0549C377.521 62.1984 377.521 55.9612 377.521 50.5761H377.473C377.452 44.2727 377.438 37.9767 377.438 31.6734C377.438 31.0195 377.425 30.3657 377.473 29.7192C377.624 27.7136 378.529 26.2957 380.347 25.6124C381.075 25.3406 381.823 25.0908 382.598 25.0835C383.819 25.0614 384.025 24.3047 383.998 23.1881C383.963 21.9906 383.257 22.064 382.502 22.064L382.488 22.0787Z" fill="url(#paint0_linear_20_785)"/>
<defs>
<linearGradient id="paint0_linear_20_785" x1="-37.6888" y1="-33.3145" x2="300.584" y2="69.786" gradientUnits="userSpaceOnUse">
<stop stop-color="#5B3519"/>
<stop offset="0.16" stop-color="#72401D"/>
<stop offset="0.427083" stop-color="#B86047"/>
<stop offset="0.93" stop-color="#72401D"/>
<stop offset="1" stop-color="#5B3519"/>
</linearGradient>
</defs>
</svg>
