<svg width="200" height="39" viewBox="0 0 200 39" fill="none" xmlns="http://www.w3.org/2000/svg">
<path d="M158.2 20.9682C158.009 20.9682 157.819 20.9546 157.628 20.9342C156.125 20.7437 155.016 19.9069 154.499 18.5734C154.036 17.3692 154.104 15.852 154.512 14.3349H153.016L153.451 12.2938H155.247C155.751 11.1985 156.39 10.1916 157.084 9.38878C158.492 7.76956 160.057 7.06201 161.479 7.38857C162.037 7.51784 162.493 7.85801 162.792 8.37507C163.472 9.54525 163.194 11.5182 162.935 12.7088C162.84 13.1307 162.751 13.4504 162.704 13.6069L161.724 14.3349H156.621C156.186 15.6751 156.07 16.9746 156.404 17.8454C156.649 18.4781 157.111 18.8183 157.88 18.9136C161.697 19.3966 167.01 11.0352 168.323 8.06891L170.242 8.74925C169.31 12.185 167.446 17.1379 168.024 18.4781C168.5 19.5939 174.079 11.9537 176.392 7.97367L178.297 8.51113L178.127 15.2873L181.059 9.37517L182.91 9.42279L186.033 16.6072C189.591 11.7768 197.224 1.63288 199.122 0.728027L200 2.57175C198.796 3.20447 192.251 11.5523 186.624 19.2469L184.862 19.0496L181.91 12.253L177.903 20.6552L175.97 20.4647L176.161 12.3619C170.752 21.1927 167.446 21.0226 166.867 20.9478C166.486 20.9002 166.16 20.6892 165.935 20.3559C165.432 19.6075 165.854 17.7025 166.269 15.2941C164.221 18.24 161.18 20.9886 158.207 20.9886L158.2 20.9682ZM157.526 12.2938H160.935C161.255 10.8787 161.255 9.60648 161.003 9.36837C160.384 9.2323 159.486 9.73575 158.622 10.729C158.213 11.1985 157.839 11.7292 157.519 12.2938H157.526Z" fill="white"/>
<path d="M116.427 38.7931L114.447 38.2965L119.869 16.5459C118.032 19.2945 116.352 20.6416 114.746 20.6416C113.869 20.6416 113.134 20.2742 112.617 19.5871C111.773 18.4577 111.644 16.4915 111.807 14.4641C108.521 19.5462 105.242 21.6757 102.024 20.8049C101.078 20.5463 99.568 19.6075 100.024 16.1854C100.105 15.5526 100.276 14.8111 100.507 14.0287H99.8673L100.391 11.9877H101.235C102.303 9.42957 103.895 7.05518 105.473 7.05518C106.263 7.05518 106.977 7.35453 107.542 7.92601C109.079 9.484 109.093 12.6612 109.093 13.015L108.072 14.0287H102.636C102.235 15.2193 101.963 16.4439 101.983 17.4712C102.004 18.2808 102.194 18.7366 102.561 18.8387C104.705 19.4238 108.249 18.0223 112.971 8.10971L113.154 7.72871L115.053 8.46348C114.093 11.7427 113.216 16.9814 114.25 18.3625C114.379 18.5325 114.515 18.6006 114.746 18.6006C116.821 18.6006 120.332 12.185 122.046 7.84437L123.985 8.47029L116.427 38.7931ZM103.466 11.9877H106.991C106.882 11.0148 106.603 9.87859 106.092 9.36153C105.909 9.17784 105.718 9.0962 105.473 9.0962C105.031 9.24588 104.208 10.4365 103.466 11.9877Z" fill="white"/>
<path d="M128.197 20.9749C127.979 20.9749 127.761 20.9613 127.544 20.9273C126.026 20.7164 124.972 19.7843 124.577 18.3011C124.278 17.1786 124.394 15.7703 124.781 14.3279H124.013L124.55 12.2869H125.496C126.299 10.416 127.462 8.72193 128.639 7.81027C130.047 6.72173 131.115 7.04149 131.626 7.32723C134.245 8.80357 133.551 12.1713 132.816 13.7429L131.891 14.3279H126.897C126.489 15.607 126.319 16.8656 126.557 17.7773C126.741 18.4712 127.122 18.8046 127.829 18.9066C131.748 19.4509 136.286 10.9262 137.579 7.89872L139.538 8.30692L139.49 14.2259C140.987 11.314 145.321 7.57896 148.879 6.88501L149.267 8.89202C142.851 10.8106 139.688 16.3145 139.388 20.6415L137.375 20.451L137.463 12.7087C135.415 16.3145 132.027 20.9817 128.204 20.9817L128.197 20.9749ZM127.741 12.2937H131.183C131.469 11.4093 131.789 9.76966 130.619 9.10973C130.544 9.06891 130.285 9.11653 129.884 9.42949C129.136 10.0078 128.36 11.0759 127.734 12.2937H127.741Z" fill="white"/>
<path d="M149.886 20.6688L147.777 20.4443L152.465 0L154.574 0.483043L149.886 20.6688Z" fill="white"/>
<path d="M171.12 6.61973L169.194 5.93258L170.439 2.29956L172.358 2.9799L171.12 6.61973Z" fill="white"/>
<path d="M47.1817 20.6415L45.2971 20.451L49.9915 0.197266L51.9781 0.673505L48.7941 14.0218C50.6718 11.178 52.9102 8.2253 54.5294 7.50413C55.1553 7.22519 55.7948 7.27282 56.3255 7.64701C57.8086 8.69473 58.0331 12.8856 57.9447 16.369L63.6392 8.56547L64.7277 10.2527L57.5637 20.6483L55.7132 20.4578C56.101 15.7499 55.8765 10.4296 55.2369 9.4363C53.3252 10.5044 49.318 16.8384 47.1817 20.6483V20.6415Z" fill="white"/>
<path d="M61.7138 19.8252C60.0129 17.6617 61.292 12.8177 62.6527 10.1371C63.7684 7.95323 65.0815 6.79664 66.449 6.79664C67.2722 6.79664 67.9797 7.11641 68.5104 7.72871C69.9799 9.42276 69.5309 12.9673 69.4697 13.3687L68.456 14.2464H63.3126C62.8568 16.1377 62.8363 17.8998 63.3602 18.6346C63.9453 19.451 66.0067 18.4237 66.8436 17.9951C71.9189 15.3962 74.8444 8.06888 77.5998 0.108887L79.5591 0.67357L75.1029 20.6552L73.1163 20.4647L74.8444 12.1237C72.2999 16.7909 69.1023 20.213 64.4692 20.9478C64.0882 21.009 62.6527 21.043 61.7138 19.8456V19.8252ZM63.9657 12.1986H67.5307C67.5851 11.0216 67.4559 9.62687 66.9728 9.06218C66.8368 8.9057 66.6871 8.83767 66.4558 8.83767C66.0476 8.83767 65.2584 9.53842 64.476 11.0692C64.2923 11.4298 64.1222 11.8108 63.9657 12.1986Z" fill="white"/>
<path d="M34.1531 20.5667C33.8674 20.5667 33.5953 20.5395 33.3163 20.485C31.9012 20.1857 30.9011 19.3421 30.4861 18.1038C29.8126 16.0968 30.8059 13.1714 33.0102 10.6541C35.3165 8.02797 38.9632 6.71491 39.1196 6.66049L39.8 8.58585C39.8 8.58585 36.4935 9.77645 34.5409 12.0012C32.8605 13.9197 31.9829 16.1649 32.4183 17.4575C32.5339 17.8045 32.7925 18.2875 33.7313 18.4848C38.6162 19.5121 48.7125 3.75543 49.9031 0.115601L51.842 0.748318C50.91 3.59895 41.1403 20.5667 34.1463 20.5667H34.1531Z" fill="white"/>
<path d="M26.336 9.86497C26.0367 8.90569 25.0026 7.26607 23.05 7.35451C21.2199 7.40894 18.8931 9.79013 16.7024 12.5727C16.5119 12.8177 16.3282 13.049 16.1649 13.2463C15.226 14.4097 13.5388 17.1174 13.8518 19.0428C13.981 19.8592 14.43 20.3014 14.7838 20.5327C15.0151 20.6824 15.2873 20.7572 15.5934 20.7572C15.8384 20.7572 16.1105 20.7096 16.403 20.6076C17.6072 20.1858 21.7981 17.0358 24.3971 14.5933L24.1861 20.4511L25.9618 20.6416C26.0095 20.594 30.5337 15.6547 34.2824 12.2802L32.9149 10.763C30.6154 12.8313 28.0369 15.471 26.336 17.2535L26.4245 11.3345L24.4923 11.2393C24.4923 11.2393 22.7438 13.3823 20.4103 15.3689C17.893 17.512 16.4643 18.3897 15.8588 18.6414C15.8043 17.9951 16.4371 16.1785 17.7705 14.5253C17.9338 14.3212 18.1175 14.0831 18.3148 13.8314C19.2469 12.6476 22.0975 9.42275 23.1248 9.38873C23.1384 9.38873 23.1452 9.38873 23.1588 9.38873C24.0297 9.38873 24.3971 10.4773 24.3971 10.4773L26.3428 9.86497H26.336Z" fill="white"/>
<path d="M1.88455 21.771L0.122461 21.077L0 8.23216L2.04102 8.21175L2.14308 18.5802C5.91897 14.743 14.811 6.00064 18.7366 4.55151L19.4442 6.46327C15.7023 7.84437 5.49716 17.9815 1.88455 21.771Z" fill="white"/>
<path d="M99.5612 11.3005C99.6156 8.9601 98.4862 7.30006 96.7378 7.164C94.7852 7.00071 92.4176 8.98051 89.5125 13.1918C89.4105 13.3415 89.3084 13.4912 89.2064 13.6408L92.1659 0.449025L90.1725 0L85.8319 19.3489L87.73 20.6348C87.9478 20.2129 88.424 18.7638 88.424 18.7638C91.1386 13.9062 94.7512 9.18461 96.5065 9.18461C96.5337 9.18461 96.5541 9.18461 96.5813 9.18461C97.2684 9.23904 97.5474 10.2527 97.527 11.2392C97.4589 13.9198 95.1254 18.1447 89.254 18.689L89.3356 20.73C96.6017 20.1177 99.4863 14.709 99.5748 11.2937L99.5612 11.3005Z" fill="white"/>
</svg>
